<mxfile host="app.diagrams.net" modified="2024-10-29T09:33:55.257Z" agent="Mozilla/5.0 (Windows NT 10.0; Win64; x64) AppleWebKit/537.36 (KHTML, like Gecko) Chrome/130.0.0.0 Safari/537.36 Edg/130.0.0.0" etag="LRkCsAxKvO_o32nCTlll" version="23.1.1" type="github">
  <diagram name="Page-1" id="74e2e168-ea6b-b213-b513-2b3c1d86103e">
    <mxGraphModel dx="4360" dy="2256" grid="1" gridSize="10" guides="1" tooltips="1" connect="0" arrows="1" fold="1" page="0" pageScale="1" pageWidth="1100" pageHeight="850" background="none" math="0" shadow="0">
      <root>
        <mxCell id="0" />
        <mxCell id="1" parent="0" />
        <mxCell id="L4OB4sKgp5-MNfct8lXh-1" style="edgeStyle=orthogonalEdgeStyle;rounded=0;orthogonalLoop=1;jettySize=auto;html=1;entryX=0;entryY=0.5;entryDx=0;entryDy=0;strokeColor=#FF6392;" edge="1" parent="1" source="L4OB4sKgp5-MNfct8lXh-3" target="L4OB4sKgp5-MNfct8lXh-7">
          <mxGeometry relative="1" as="geometry">
            <mxPoint x="580" y="1000" as="targetPoint" />
            <Array as="points">
              <mxPoint x="550" y="1010" />
            </Array>
          </mxGeometry>
        </mxCell>
        <mxCell id="L4OB4sKgp5-MNfct8lXh-2" style="edgeStyle=orthogonalEdgeStyle;rounded=0;orthogonalLoop=1;jettySize=auto;html=1;entryX=0;entryY=0.5;entryDx=0;entryDy=0;strokeColor=#FF6392;" edge="1" parent="1" source="L4OB4sKgp5-MNfct8lXh-3" target="L4OB4sKgp5-MNfct8lXh-9">
          <mxGeometry relative="1" as="geometry">
            <mxPoint x="550" y="1500" as="targetPoint" />
            <Array as="points">
              <mxPoint x="550" y="1370" />
            </Array>
          </mxGeometry>
        </mxCell>
        <mxCell id="L4OB4sKgp5-MNfct8lXh-3" value="Based on &lt;br/&gt;Entitlement Status" style="rhombus;whiteSpace=wrap;html=1;rounded=0;shadow=0;labelBackgroundColor=none;strokeWidth=1;fontFamily=Verdana;fontSize=8;align=center;fillColor=#f5f5f5;strokeColor=#666666;aspect=fixed;fontColor=#333333;" vertex="1" parent="1">
          <mxGeometry x="470" y="1115" width="160" height="120" as="geometry" />
        </mxCell>
        <mxCell id="L4OB4sKgp5-MNfct8lXh-4" value="" style="edgeStyle=orthogonalEdgeStyle;rounded=0;orthogonalLoop=1;jettySize=auto;html=1;strokeColor=#FF6392;" edge="1" parent="1" source="L4OB4sKgp5-MNfct8lXh-5" target="L4OB4sKgp5-MNfct8lXh-3">
          <mxGeometry relative="1" as="geometry" />
        </mxCell>
        <mxCell id="L4OB4sKgp5-MNfct8lXh-5" value="&lt;font style=&quot;&quot;&gt;&lt;div style=&quot;&quot;&gt;&lt;/div&gt;&lt;div style=&quot;border-color: var(--border-color); text-align: left;&quot;&gt;&lt;br&gt;&lt;/div&gt;&lt;div style=&quot;border-color: var(--border-color);&quot;&gt;&lt;br&gt;&lt;/div&gt;&lt;div style=&quot;border-color: var(--border-color);&quot;&gt;(3)ServiceEntitlementStatus&lt;/div&gt;&lt;div style=&quot;border-color: var(--border-color);&quot;&gt;&lt;br&gt;&lt;/div&gt;&lt;div style=&quot;border-color: var(--border-color);&quot;&gt;&lt;div style=&quot;border-color: var(--border-color);&quot;&gt;&lt;br&gt;&lt;/div&gt;&lt;div style=&quot;border-color: var(--border-color);&quot;&gt;&lt;br&gt;&lt;/div&gt;&lt;/div&gt;&lt;/font&gt;" style="shape=parallelogram;perimeter=parallelogramPerimeter;whiteSpace=wrap;html=1;fixedSize=1;fillColor=#d5e8d4;strokeColor=#82b366;aspect=fixed;" vertex="1" parent="1">
          <mxGeometry x="150" y="1115" width="240" height="120" as="geometry" />
        </mxCell>
        <mxCell id="L4OB4sKgp5-MNfct8lXh-6" style="edgeStyle=orthogonalEdgeStyle;rounded=0;orthogonalLoop=1;jettySize=auto;html=1;strokeColor=#FF6392;exitX=1;exitY=0.5;exitDx=0;exitDy=0;entryX=0;entryY=0.5;entryDx=0;entryDy=0;" edge="1" parent="1" source="L4OB4sKgp5-MNfct8lXh-7" target="L4OB4sKgp5-MNfct8lXh-13">
          <mxGeometry relative="1" as="geometry" />
        </mxCell>
        <mxCell id="L4OB4sKgp5-MNfct8lXh-7" value="(4)manageLocationAndTC &lt;br&gt;(mALTC)&lt;br&gt;&lt;div&gt;(5)managePushToken -&lt;/div&gt;&lt;div&gt;Registration request&lt;/div&gt;" style="shape=parallelogram;perimeter=parallelogramPerimeter;whiteSpace=wrap;html=1;fixedSize=1;fillColor=#d5e8d4;strokeColor=#82b366;aspect=fixed;" vertex="1" parent="1">
          <mxGeometry x="690" y="950" width="240" height="120" as="geometry" />
        </mxCell>
        <mxCell id="L4OB4sKgp5-MNfct8lXh-8" value="&lt;div&gt;1000 (Entitled) or&amp;nbsp; 1048 (not Entitled)&lt;/div&gt;&lt;div&gt;&lt;br&gt;&lt;/div&gt;" style="text;html=1;strokeColor=none;fillColor=none;align=center;verticalAlign=middle;whiteSpace=wrap;rounded=0;" vertex="1" parent="1">
          <mxGeometry x="560" y="970" width="130" height="30" as="geometry" />
        </mxCell>
        <mxCell id="L4OB4sKgp5-MNfct8lXh-9" value="ERROR PAGE&lt;br&gt;&lt;br&gt;&amp;nbsp;entitlemnt check should end and NOT enable the toggle." style="rounded=0;whiteSpace=wrap;html=1;shadow=0;labelBackgroundColor=none;strokeWidth=1;fontFamily=Verdana;fontSize=8;align=center;fillColor=#f8cecc;strokeColor=#b85450;aspect=fixed;" vertex="1" parent="1">
          <mxGeometry x="710" y="1310" width="200" height="120" as="geometry" />
        </mxCell>
        <mxCell id="L4OB4sKgp5-MNfct8lXh-10" value="1046 (Invalid Service Name) or&amp;nbsp;1063 (Suspended Account)" style="text;html=1;strokeColor=none;fillColor=none;align=center;verticalAlign=middle;whiteSpace=wrap;rounded=0;" vertex="1" parent="1">
          <mxGeometry x="540" y="1380" width="140" height="30" as="geometry" />
        </mxCell>
        <mxCell id="L4OB4sKgp5-MNfct8lXh-11" style="edgeStyle=orthogonalEdgeStyle;rounded=0;orthogonalLoop=1;jettySize=auto;html=1;strokeColor=#FF6392;entryX=0;entryY=0.5;entryDx=0;entryDy=0;" edge="1" parent="1" source="L4OB4sKgp5-MNfct8lXh-13" target="L4OB4sKgp5-MNfct8lXh-14">
          <mxGeometry relative="1" as="geometry">
            <mxPoint x="1309.988888888889" y="1010.0666666666666" as="targetPoint" />
            <Array as="points">
              <mxPoint x="1109" y="1010" />
            </Array>
          </mxGeometry>
        </mxCell>
        <mxCell id="L4OB4sKgp5-MNfct8lXh-12" style="edgeStyle=orthogonalEdgeStyle;rounded=0;orthogonalLoop=1;jettySize=auto;html=1;entryX=0;entryY=0.5;entryDx=0;entryDy=0;strokeColor=#FF6392;exitX=0.5;exitY=1;exitDx=0;exitDy=0;" edge="1" parent="1" source="L4OB4sKgp5-MNfct8lXh-13" target="L4OB4sKgp5-MNfct8lXh-15">
          <mxGeometry relative="1" as="geometry">
            <Array as="points">
              <mxPoint x="1110" y="1370" />
            </Array>
          </mxGeometry>
        </mxCell>
        <mxCell id="L4OB4sKgp5-MNfct8lXh-13" value="Based on Location-Status and TC-Status" style="rhombus;whiteSpace=wrap;html=1;rounded=0;shadow=0;labelBackgroundColor=none;strokeWidth=1;fontFamily=Verdana;fontSize=8;align=center;fillColor=#f5f5f5;strokeColor=#666666;aspect=fixed;fontColor=#333333;" vertex="1" parent="1">
          <mxGeometry x="1029" y="1115" width="160" height="120" as="geometry" />
        </mxCell>
        <mxCell id="L4OB4sKgp5-MNfct8lXh-14" value="Launch Web URL" style="rounded=0;whiteSpace=wrap;html=1;shadow=0;labelBackgroundColor=none;strokeWidth=1;fontFamily=Verdana;fontSize=8;align=center;aspect=fixed;fillColor=#dae8fc;strokeColor=#6c8ebf;" vertex="1" parent="1">
          <mxGeometry x="1330" y="950" width="200" height="120" as="geometry" />
        </mxCell>
        <mxCell id="L4OB4sKgp5-MNfct8lXh-15" value="WFC Toggle is “on”, &lt;br&gt;&lt;br&gt;and the“Update &lt;br&gt;Emergency Address” &lt;br&gt;option provides the &lt;br&gt;user the ability to update 911 address." style="rounded=0;whiteSpace=wrap;html=1;shadow=0;labelBackgroundColor=none;strokeWidth=1;fontFamily=Verdana;fontSize=8;align=center;fillColor=#d5e8d4;strokeColor=#82b366;aspect=fixed;" vertex="1" parent="1">
          <mxGeometry x="1324" y="1310" width="200" height="120" as="geometry" />
        </mxCell>
        <mxCell id="L4OB4sKgp5-MNfct8lXh-16" value="If SES = 1000 AND &lt;br&gt;(Location and TC Status = True)" style="text;html=1;strokeColor=none;fillColor=none;align=center;verticalAlign=middle;whiteSpace=wrap;rounded=0;" vertex="1" parent="1">
          <mxGeometry x="1111" y="1340" width="182" height="30" as="geometry" />
        </mxCell>
        <mxCell id="L4OB4sKgp5-MNfct8lXh-17" value="If SES = 1048 or If ANY&amp;nbsp; equal to False&amp;nbsp;" style="text;html=1;strokeColor=none;fillColor=none;align=center;verticalAlign=middle;whiteSpace=wrap;rounded=0;" vertex="1" parent="1">
          <mxGeometry x="1140" y="971" width="140" height="30" as="geometry" />
        </mxCell>
        <mxCell id="L4OB4sKgp5-MNfct8lXh-18" style="edgeStyle=orthogonalEdgeStyle;rounded=0;orthogonalLoop=1;jettySize=auto;html=1;strokeColor=#FF6392;" edge="1" parent="1" target="L4OB4sKgp5-MNfct8lXh-5">
          <mxGeometry relative="1" as="geometry">
            <mxPoint x="59" y="1175" as="sourcePoint" />
          </mxGeometry>
        </mxCell>
        <mxCell id="L4OB4sKgp5-MNfct8lXh-19" value="&lt;font style=&quot;&quot;&gt;&lt;div style=&quot;&quot;&gt;&lt;/div&gt;&lt;div style=&quot;border-color: var(--border-color); text-align: left;&quot;&gt;&lt;br&gt;&lt;/div&gt;&lt;div style=&quot;border-color: var(--border-color);&quot;&gt;&lt;font color=&quot;#ff6392&quot;&gt;&lt;br&gt;&lt;/font&gt;&lt;/div&gt;&lt;div style=&quot;border-color: var(--border-color);&quot;&gt;&lt;div style=&quot;border-color: var(--border-color);&quot;&gt;&lt;span style=&quot;background-color: initial;&quot;&gt;User&amp;nbsp;inititated&amp;nbsp;Toggle&amp;nbsp;On&amp;nbsp;Manually&lt;/span&gt;&lt;br&gt;&lt;/div&gt;&lt;div style=&quot;border-color: var(--border-color);&quot;&gt;(1)SIM&amp;nbsp;Device&amp;nbsp;Activation：&lt;/div&gt;&lt;div style=&quot;border-color: var(--border-color);&quot;&gt;①3gppAuthentication(EAP-AKA)&lt;/div&gt;&lt;div style=&quot;border-color: var(--border-color);&quot;&gt;&lt;font color=&quot;#7ea6e0&quot;&gt;②manageConnectivity&lt;/font&gt;&lt;/div&gt;&lt;div style=&quot;border-color: var(--border-color);&quot;&gt;&lt;font color=&quot;#7ea6e0&quot;&gt;③getMSISDN&lt;/font&gt;&lt;/div&gt;&lt;div style=&quot;border-color: var(--border-color);&quot;&gt;&lt;span style=&quot;background-color: initial;&quot;&gt;(2)managePushToken -&lt;/span&gt;&lt;br&gt;&lt;/div&gt;&lt;div style=&quot;border-color: var(--border-color);&quot;&gt;Registration request&lt;/div&gt;&lt;div style=&quot;border-color: var(--border-color);&quot;&gt;&lt;br&gt;&lt;/div&gt;&lt;/div&gt;&lt;/font&gt;" style="shape=parallelogram;perimeter=parallelogramPerimeter;whiteSpace=wrap;html=1;fixedSize=1;fillColor=#d5e8d4;strokeColor=#82b366;aspect=fixed;" vertex="1" parent="1">
          <mxGeometry x="-171" y="1115" width="240" height="120" as="geometry" />
        </mxCell>
        <mxCell id="L4OB4sKgp5-MNfct8lXh-20" value="&lt;h1&gt;&lt;font style=&quot;font-size: 28px;&quot;&gt;ATT WFC REQ Service Enablement&amp;nbsp;Flow&lt;/font&gt;&lt;/h1&gt;" style="text;html=1;strokeColor=none;fillColor=none;spacing=5;spacingTop=-20;whiteSpace=wrap;overflow=hidden;rounded=0;align=center;" vertex="1" parent="1">
          <mxGeometry x="275" y="1510" width="700" height="120" as="geometry" />
        </mxCell>
      </root>
    </mxGraphModel>
  </diagram>
</mxfile>
